<svg xmlns="http://www.w3.org/2000/svg" xmlns:xlink="http://www.w3.org/1999/xlink" width="512" height="512" viewBox="0 0 512 512">
  <defs>
    <clipPath id="canvas-clip">
      <rect width="512" height="512" rx="112" ry="112"/>
    </clipPath>
  </defs>
  <rect width="512" height="512" rx="112" ry="112" fill="none"  clip-path="url(#canvas-clip)"/>
  <g clip-path="url(#canvas-clip)">
    <g transform="rotate(0, 256, 256)">
      <g transform="translate(34 26) scale(19.208333333333332 19.208333333333332) translate(0 0)"><path fill="none" stroke="#000000" stroke-linecap="round" stroke-linejoin="round" stroke-width="1.5" d="m21 7.5l-9-5.25L3 7.5m18 0l-9 5.25m9-5.25v9l-9 5.25M3 7.5l9 5.25M3 7.5v9l9 5.25m0-9v9"/></g><g transform="translate(33 29) scale(19.208333333333332 19.208333333333332) translate(0 0)"><path fill="none" stroke="#000000" stroke-linecap="round" stroke-linejoin="round" stroke-width="1.5" d="m21 7.5l-9-5.25L3 7.5m18 0l-9 5.25m9-5.25v9l-9 5.25M3 7.5l9 5.25M3 7.5v9l9 5.25m0-9v9"/></g><g transform="translate(32 31) scale(19.208333333333332 19.208333333333332) translate(0 0)"><path fill="none" stroke="#000000" stroke-linecap="round" stroke-linejoin="round" stroke-width="1.5" d="m21 7.5l-9-5.25L3 7.5m18 0l-9 5.25m9-5.25v9l-9 5.25M3 7.5l9 5.25M3 7.5v9l9 5.25m0-9v9"/></g><g transform="translate(30 33) scale(19.208333333333332 19.208333333333332) translate(0 0)"><path fill="none" stroke="#000000" stroke-linecap="round" stroke-linejoin="round" stroke-width="1.5" d="m21 7.5l-9-5.25L3 7.5m18 0l-9 5.25m9-5.25v9l-9 5.25M3 7.5l9 5.25M3 7.5v9l9 5.25m0-9v9"/></g><g transform="translate(27 34) scale(19.208333333333332 19.208333333333332) translate(0 0)"><path fill="none" stroke="#000000" stroke-linecap="round" stroke-linejoin="round" stroke-width="1.5" d="m21 7.5l-9-5.25L3 7.5m18 0l-9 5.25m9-5.25v9l-9 5.25M3 7.5l9 5.25M3 7.5v9l9 5.25m0-9v9"/></g><g transform="translate(24 34) scale(19.208333333333332 19.208333333333332) translate(0 0)"><path fill="none" stroke="#000000" stroke-linecap="round" stroke-linejoin="round" stroke-width="1.5" d="m21 7.5l-9-5.25L3 7.5m18 0l-9 5.25m9-5.25v9l-9 5.25M3 7.5l9 5.25M3 7.5v9l9 5.25m0-9v9"/></g><g transform="translate(21 32) scale(19.208333333333332 19.208333333333332) translate(0 0)"><path fill="none" stroke="#000000" stroke-linecap="round" stroke-linejoin="round" stroke-width="1.5" d="m21 7.5l-9-5.25L3 7.5m18 0l-9 5.25m9-5.25v9l-9 5.25M3 7.5l9 5.25M3 7.5v9l9 5.25m0-9v9"/></g><g transform="translate(19 30) scale(19.208333333333332 19.208333333333332) translate(0 0)"><path fill="none" stroke="#000000" stroke-linecap="round" stroke-linejoin="round" stroke-width="1.5" d="m21 7.5l-9-5.25L3 7.5m18 0l-9 5.25m9-5.25v9l-9 5.25M3 7.5l9 5.25M3 7.5v9l9 5.25m0-9v9"/></g><g transform="translate(18 27) scale(19.208333333333332 19.208333333333332) translate(0 0)"><path fill="none" stroke="#000000" stroke-linecap="round" stroke-linejoin="round" stroke-width="1.5" d="m21 7.5l-9-5.25L3 7.5m18 0l-9 5.25m9-5.25v9l-9 5.25M3 7.5l9 5.25M3 7.5v9l9 5.25m0-9v9"/></g><g transform="translate(18 25) scale(19.208333333333332 19.208333333333332) translate(0 0)"><path fill="none" stroke="#000000" stroke-linecap="round" stroke-linejoin="round" stroke-width="1.5" d="m21 7.5l-9-5.25L3 7.5m18 0l-9 5.25m9-5.25v9l-9 5.25M3 7.5l9 5.25M3 7.5v9l9 5.25m0-9v9"/></g><g transform="translate(19 22) scale(19.208333333333332 19.208333333333332) translate(0 0)"><path fill="none" stroke="#000000" stroke-linecap="round" stroke-linejoin="round" stroke-width="1.5" d="m21 7.5l-9-5.25L3 7.5m18 0l-9 5.25m9-5.25v9l-9 5.25M3 7.5l9 5.25M3 7.5v9l9 5.25m0-9v9"/></g><g transform="translate(21 20) scale(19.208333333333332 19.208333333333332) translate(0 0)"><path fill="none" stroke="#000000" stroke-linecap="round" stroke-linejoin="round" stroke-width="1.5" d="m21 7.5l-9-5.25L3 7.5m18 0l-9 5.25m9-5.25v9l-9 5.25M3 7.5l9 5.25M3 7.5v9l9 5.25m0-9v9"/></g><g transform="translate(24 18) scale(19.208333333333332 19.208333333333332) translate(0 0)"><path fill="none" stroke="#000000" stroke-linecap="round" stroke-linejoin="round" stroke-width="1.5" d="m21 7.5l-9-5.25L3 7.5m18 0l-9 5.25m9-5.25v9l-9 5.25M3 7.5l9 5.25M3 7.5v9l9 5.25m0-9v9"/></g><g transform="translate(27 18) scale(19.208333333333332 19.208333333333332) translate(0 0)"><path fill="none" stroke="#000000" stroke-linecap="round" stroke-linejoin="round" stroke-width="1.5" d="m21 7.5l-9-5.25L3 7.5m18 0l-9 5.25m9-5.25v9l-9 5.25M3 7.5l9 5.25M3 7.5v9l9 5.25m0-9v9"/></g><g transform="translate(30 19) scale(19.208333333333332 19.208333333333332) translate(0 0)"><path fill="none" stroke="#000000" stroke-linecap="round" stroke-linejoin="round" stroke-width="1.5" d="m21 7.5l-9-5.25L3 7.5m18 0l-9 5.25m9-5.25v9l-9 5.25M3 7.5l9 5.25M3 7.5v9l9 5.25m0-9v9"/></g><g transform="translate(32 21) scale(19.208333333333332 19.208333333333332) translate(0 0)"><path fill="none" stroke="#000000" stroke-linecap="round" stroke-linejoin="round" stroke-width="1.5" d="m21 7.5l-9-5.25L3 7.5m18 0l-9 5.25m9-5.25v9l-9 5.25M3 7.5l9 5.25M3 7.5v9l9 5.25m0-9v9"/></g><g transform="translate(33 23) scale(19.208333333333332 19.208333333333332) translate(0 0)"><path fill="none" stroke="#000000" stroke-linecap="round" stroke-linejoin="round" stroke-width="1.5" d="m21 7.5l-9-5.25L3 7.5m18 0l-9 5.25m9-5.25v9l-9 5.25M3 7.5l9 5.25M3 7.5v9l9 5.25m0-9v9"/></g><g transform="translate(31 26) scale(19.208333333333332 19.208333333333332) translate(0 0)"><path fill="none" stroke="#000000" stroke-linecap="round" stroke-linejoin="round" stroke-width="1.5" d="m21 7.5l-9-5.25L3 7.5m18 0l-9 5.25m9-5.25v9l-9 5.25M3 7.5l9 5.25M3 7.5v9l9 5.25m0-9v9"/></g><g transform="translate(30 28) scale(19.208333333333332 19.208333333333332) translate(0 0)"><path fill="none" stroke="#000000" stroke-linecap="round" stroke-linejoin="round" stroke-width="1.5" d="m21 7.5l-9-5.25L3 7.5m18 0l-9 5.25m9-5.25v9l-9 5.25M3 7.5l9 5.25M3 7.5v9l9 5.25m0-9v9"/></g><g transform="translate(29 30) scale(19.208333333333332 19.208333333333332) translate(0 0)"><path fill="none" stroke="#000000" stroke-linecap="round" stroke-linejoin="round" stroke-width="1.5" d="m21 7.5l-9-5.25L3 7.5m18 0l-9 5.25m9-5.25v9l-9 5.25M3 7.5l9 5.25M3 7.5v9l9 5.25m0-9v9"/></g><g transform="translate(26 31) scale(19.208333333333332 19.208333333333332) translate(0 0)"><path fill="none" stroke="#000000" stroke-linecap="round" stroke-linejoin="round" stroke-width="1.5" d="m21 7.5l-9-5.25L3 7.5m18 0l-9 5.25m9-5.25v9l-9 5.25M3 7.5l9 5.25M3 7.5v9l9 5.25m0-9v9"/></g><g transform="translate(24 30) scale(19.208333333333332 19.208333333333332) translate(0 0)"><path fill="none" stroke="#000000" stroke-linecap="round" stroke-linejoin="round" stroke-width="1.5" d="m21 7.5l-9-5.25L3 7.5m18 0l-9 5.25m9-5.25v9l-9 5.25M3 7.5l9 5.25M3 7.5v9l9 5.25m0-9v9"/></g><g transform="translate(22 28) scale(19.208333333333332 19.208333333333332) translate(0 0)"><path fill="none" stroke="#000000" stroke-linecap="round" stroke-linejoin="round" stroke-width="1.5" d="m21 7.5l-9-5.25L3 7.5m18 0l-9 5.25m9-5.25v9l-9 5.25M3 7.5l9 5.25M3 7.5v9l9 5.25m0-9v9"/></g><g transform="translate(21 26) scale(19.208333333333332 19.208333333333332) translate(0 0)"><path fill="none" stroke="#000000" stroke-linecap="round" stroke-linejoin="round" stroke-width="1.5" d="m21 7.5l-9-5.25L3 7.5m18 0l-9 5.25m9-5.25v9l-9 5.25M3 7.5l9 5.25M3 7.5v9l9 5.25m0-9v9"/></g><g transform="translate(22 23) scale(19.208333333333332 19.208333333333332) translate(0 0)"><path fill="none" stroke="#000000" stroke-linecap="round" stroke-linejoin="round" stroke-width="1.5" d="m21 7.5l-9-5.25L3 7.5m18 0l-9 5.25m9-5.25v9l-9 5.25M3 7.5l9 5.25M3 7.5v9l9 5.25m0-9v9"/></g><g transform="translate(23 22) scale(19.208333333333332 19.208333333333332) translate(0 0)"><path fill="none" stroke="#000000" stroke-linecap="round" stroke-linejoin="round" stroke-width="1.5" d="m21 7.5l-9-5.25L3 7.5m18 0l-9 5.25m9-5.25v9l-9 5.25M3 7.5l9 5.25M3 7.5v9l9 5.25m0-9v9"/></g><g transform="translate(26 21) scale(19.208333333333332 19.208333333333332) translate(0 0)"><path fill="none" stroke="#000000" stroke-linecap="round" stroke-linejoin="round" stroke-width="1.5" d="m21 7.5l-9-5.25L3 7.5m18 0l-9 5.25m9-5.25v9l-9 5.25M3 7.5l9 5.25M3 7.5v9l9 5.25m0-9v9"/></g><g transform="translate(29 22) scale(19.208333333333332 19.208333333333332) translate(0 0)"><path fill="none" stroke="#000000" stroke-linecap="round" stroke-linejoin="round" stroke-width="1.5" d="m21 7.5l-9-5.25L3 7.5m18 0l-9 5.25m9-5.25v9l-9 5.25M3 7.5l9 5.25M3 7.5v9l9 5.25m0-9v9"/></g><g transform="translate(30 23) scale(19.208333333333332 19.208333333333332) translate(0 0)"><path fill="none" stroke="#000000" stroke-linecap="round" stroke-linejoin="round" stroke-width="1.5" d="m21 7.5l-9-5.25L3 7.5m18 0l-9 5.25m9-5.25v9l-9 5.25M3 7.5l9 5.25M3 7.5v9l9 5.25m0-9v9"/></g><g transform="translate(29 26) scale(19.208333333333332 19.208333333333332) translate(0 0)"><path fill="none" stroke="#000000" stroke-linecap="round" stroke-linejoin="round" stroke-width="1.5" d="m21 7.5l-9-5.25L3 7.5m18 0l-9 5.25m9-5.25v9l-9 5.25M3 7.5l9 5.25M3 7.5v9l9 5.25m0-9v9"/></g><g transform="translate(29 27) scale(19.208333333333332 19.208333333333332) translate(0 0)"><path fill="none" stroke="#000000" stroke-linecap="round" stroke-linejoin="round" stroke-width="1.5" d="m21 7.5l-9-5.25L3 7.5m18 0l-9 5.25m9-5.25v9l-9 5.25M3 7.5l9 5.25M3 7.5v9l9 5.25m0-9v9"/></g><g transform="translate(28 29) scale(19.208333333333332 19.208333333333332) translate(0 0)"><path fill="none" stroke="#000000" stroke-linecap="round" stroke-linejoin="round" stroke-width="1.5" d="m21 7.5l-9-5.25L3 7.5m18 0l-9 5.25m9-5.25v9l-9 5.25M3 7.5l9 5.25M3 7.5v9l9 5.25m0-9v9"/></g><g transform="translate(26 29) scale(19.208333333333332 19.208333333333332) translate(0 0)"><path fill="none" stroke="#000000" stroke-linecap="round" stroke-linejoin="round" stroke-width="1.5" d="m21 7.5l-9-5.25L3 7.5m18 0l-9 5.25m9-5.25v9l-9 5.25M3 7.5l9 5.25M3 7.5v9l9 5.25m0-9v9"/></g><g transform="translate(25 29) scale(19.208333333333332 19.208333333333332) translate(0 0)"><path fill="none" stroke="#000000" stroke-linecap="round" stroke-linejoin="round" stroke-width="1.5" d="m21 7.5l-9-5.25L3 7.5m18 0l-9 5.25m9-5.25v9l-9 5.25M3 7.5l9 5.25M3 7.5v9l9 5.25m0-9v9"/></g><g transform="translate(23 27) scale(19.208333333333332 19.208333333333332) translate(0 0)"><path fill="none" stroke="#000000" stroke-linecap="round" stroke-linejoin="round" stroke-width="1.5" d="m21 7.5l-9-5.25L3 7.5m18 0l-9 5.25m9-5.25v9l-9 5.25M3 7.5l9 5.25M3 7.5v9l9 5.25m0-9v9"/></g><g transform="translate(23 26) scale(19.208333333333332 19.208333333333332) translate(0 0)"><path fill="none" stroke="#000000" stroke-linecap="round" stroke-linejoin="round" stroke-width="1.5" d="m21 7.5l-9-5.25L3 7.5m18 0l-9 5.25m9-5.25v9l-9 5.25M3 7.5l9 5.25M3 7.5v9l9 5.25m0-9v9"/></g><g transform="translate(23 24) scale(19.208333333333332 19.208333333333332) translate(0 0)"><path fill="none" stroke="#000000" stroke-linecap="round" stroke-linejoin="round" stroke-width="1.5" d="m21 7.5l-9-5.25L3 7.5m18 0l-9 5.25m9-5.25v9l-9 5.25M3 7.5l9 5.25M3 7.5v9l9 5.25m0-9v9"/></g><g transform="translate(24 23) scale(19.208333333333332 19.208333333333332) translate(0 0)"><path fill="none" stroke="#000000" stroke-linecap="round" stroke-linejoin="round" stroke-width="1.5" d="m21 7.5l-9-5.25L3 7.5m18 0l-9 5.25m9-5.25v9l-9 5.25M3 7.5l9 5.25M3 7.5v9l9 5.25m0-9v9"/></g><g transform="translate(26 23) scale(19.208333333333332 19.208333333333332) translate(0 0)"><path fill="none" stroke="#000000" stroke-linecap="round" stroke-linejoin="round" stroke-width="1.5" d="m21 7.5l-9-5.25L3 7.5m18 0l-9 5.25m9-5.25v9l-9 5.25M3 7.5l9 5.25M3 7.5v9l9 5.25m0-9v9"/></g><g transform="translate(28 23) scale(19.208333333333332 19.208333333333332) translate(0 0)"><path fill="none" stroke="#000000" stroke-linecap="round" stroke-linejoin="round" stroke-width="1.5" d="m21 7.5l-9-5.25L3 7.5m18 0l-9 5.25m9-5.25v9l-9 5.25M3 7.5l9 5.25M3 7.5v9l9 5.25m0-9v9"/></g><g transform="translate(29 24) scale(19.208333333333332 19.208333333333332) translate(0 0)"><path fill="none" stroke="#000000" stroke-linecap="round" stroke-linejoin="round" stroke-width="1.5" d="m21 7.5l-9-5.25L3 7.5m18 0l-9 5.25m9-5.25v9l-9 5.25M3 7.5l9 5.25M3 7.5v9l9 5.25m0-9v9"/></g>
      <g transform="translate(26 26) scale(19.208333333333332 19.208333333333332) translate(0 0)"><path fill="none" stroke="#303030" stroke-linecap="round" stroke-linejoin="round" stroke-width="1.5" d="m21 7.5l-9-5.25L3 7.5m18 0l-9 5.25m9-5.25v9l-9 5.25M3 7.5l9 5.25M3 7.5v9l9 5.25m0-9v9"/></g>
    </g>
  </g>
</svg>