<svg xmlns="http://www.w3.org/2000/svg" xmlns:xlink="http://www.w3.org/1999/xlink" width="512" height="512" viewBox="0 0 512 512">
  <defs>
    <clipPath id="canvas-clip">
      <rect width="512" height="512" rx="112" ry="112"/>
    </clipPath>
  </defs>
  <rect width="512" height="512" rx="112" ry="112" fill="none"  clip-path="url(#canvas-clip)"/>
  <g clip-path="url(#canvas-clip)">
    <g transform="rotate(0, 256, 256)">
      <g transform="translate(85 77) scale(14.916666666666666 14.916666666666666) translate(0 0)"><path fill="none" stroke="#000000" stroke-linecap="round" stroke-linejoin="round" stroke-width="2" d="M2 9.5a5.5 5.5 0 0 1 9.591-3.676a.56.56 0 0 0 .818 0A5.49 5.49 0 0 1 22 9.5c0 2.29-1.5 4-3 5.5l-5.492 5.313a2 2 0 0 1-3 .019L5 15c-1.5-1.5-3-3.2-3-5.5"/></g><g transform="translate(84 80) scale(14.916666666666666 14.916666666666666) translate(0 0)"><path fill="none" stroke="#000000" stroke-linecap="round" stroke-linejoin="round" stroke-width="2" d="M2 9.5a5.5 5.5 0 0 1 9.591-3.676a.56.56 0 0 0 .818 0A5.49 5.49 0 0 1 22 9.5c0 2.29-1.5 4-3 5.5l-5.492 5.313a2 2 0 0 1-3 .019L5 15c-1.5-1.5-3-3.2-3-5.5"/></g><g transform="translate(83 82) scale(14.916666666666666 14.916666666666666) translate(0 0)"><path fill="none" stroke="#000000" stroke-linecap="round" stroke-linejoin="round" stroke-width="2" d="M2 9.5a5.5 5.5 0 0 1 9.591-3.676a.56.56 0 0 0 .818 0A5.49 5.49 0 0 1 22 9.5c0 2.29-1.5 4-3 5.5l-5.492 5.313a2 2 0 0 1-3 .019L5 15c-1.5-1.5-3-3.2-3-5.5"/></g><g transform="translate(81 84) scale(14.916666666666666 14.916666666666666) translate(0 0)"><path fill="none" stroke="#000000" stroke-linecap="round" stroke-linejoin="round" stroke-width="2" d="M2 9.5a5.5 5.5 0 0 1 9.591-3.676a.56.56 0 0 0 .818 0A5.49 5.49 0 0 1 22 9.5c0 2.29-1.5 4-3 5.5l-5.492 5.313a2 2 0 0 1-3 .019L5 15c-1.5-1.5-3-3.2-3-5.5"/></g><g transform="translate(78 85) scale(14.916666666666666 14.916666666666666) translate(0 0)"><path fill="none" stroke="#000000" stroke-linecap="round" stroke-linejoin="round" stroke-width="2" d="M2 9.5a5.5 5.5 0 0 1 9.591-3.676a.56.56 0 0 0 .818 0A5.49 5.49 0 0 1 22 9.5c0 2.29-1.5 4-3 5.5l-5.492 5.313a2 2 0 0 1-3 .019L5 15c-1.5-1.5-3-3.2-3-5.5"/></g><g transform="translate(75 85) scale(14.916666666666666 14.916666666666666) translate(0 0)"><path fill="none" stroke="#000000" stroke-linecap="round" stroke-linejoin="round" stroke-width="2" d="M2 9.5a5.5 5.5 0 0 1 9.591-3.676a.56.56 0 0 0 .818 0A5.49 5.49 0 0 1 22 9.5c0 2.29-1.5 4-3 5.5l-5.492 5.313a2 2 0 0 1-3 .019L5 15c-1.5-1.5-3-3.2-3-5.5"/></g><g transform="translate(72 83) scale(14.916666666666666 14.916666666666666) translate(0 0)"><path fill="none" stroke="#000000" stroke-linecap="round" stroke-linejoin="round" stroke-width="2" d="M2 9.5a5.5 5.5 0 0 1 9.591-3.676a.56.56 0 0 0 .818 0A5.49 5.49 0 0 1 22 9.5c0 2.29-1.5 4-3 5.5l-5.492 5.313a2 2 0 0 1-3 .019L5 15c-1.5-1.5-3-3.2-3-5.5"/></g><g transform="translate(70 81) scale(14.916666666666666 14.916666666666666) translate(0 0)"><path fill="none" stroke="#000000" stroke-linecap="round" stroke-linejoin="round" stroke-width="2" d="M2 9.5a5.5 5.5 0 0 1 9.591-3.676a.56.56 0 0 0 .818 0A5.49 5.49 0 0 1 22 9.5c0 2.29-1.5 4-3 5.5l-5.492 5.313a2 2 0 0 1-3 .019L5 15c-1.5-1.5-3-3.2-3-5.5"/></g><g transform="translate(69 78) scale(14.916666666666666 14.916666666666666) translate(0 0)"><path fill="none" stroke="#000000" stroke-linecap="round" stroke-linejoin="round" stroke-width="2" d="M2 9.5a5.5 5.5 0 0 1 9.591-3.676a.56.56 0 0 0 .818 0A5.49 5.49 0 0 1 22 9.5c0 2.29-1.5 4-3 5.5l-5.492 5.313a2 2 0 0 1-3 .019L5 15c-1.5-1.5-3-3.2-3-5.5"/></g><g transform="translate(69 76) scale(14.916666666666666 14.916666666666666) translate(0 0)"><path fill="none" stroke="#000000" stroke-linecap="round" stroke-linejoin="round" stroke-width="2" d="M2 9.5a5.5 5.5 0 0 1 9.591-3.676a.56.56 0 0 0 .818 0A5.49 5.49 0 0 1 22 9.5c0 2.29-1.5 4-3 5.5l-5.492 5.313a2 2 0 0 1-3 .019L5 15c-1.5-1.5-3-3.2-3-5.5"/></g><g transform="translate(70 73) scale(14.916666666666666 14.916666666666666) translate(0 0)"><path fill="none" stroke="#000000" stroke-linecap="round" stroke-linejoin="round" stroke-width="2" d="M2 9.5a5.5 5.5 0 0 1 9.591-3.676a.56.56 0 0 0 .818 0A5.49 5.49 0 0 1 22 9.5c0 2.29-1.5 4-3 5.5l-5.492 5.313a2 2 0 0 1-3 .019L5 15c-1.5-1.5-3-3.2-3-5.5"/></g><g transform="translate(72 71) scale(14.916666666666666 14.916666666666666) translate(0 0)"><path fill="none" stroke="#000000" stroke-linecap="round" stroke-linejoin="round" stroke-width="2" d="M2 9.5a5.5 5.5 0 0 1 9.591-3.676a.56.56 0 0 0 .818 0A5.49 5.49 0 0 1 22 9.5c0 2.29-1.5 4-3 5.5l-5.492 5.313a2 2 0 0 1-3 .019L5 15c-1.5-1.5-3-3.2-3-5.5"/></g><g transform="translate(75 69) scale(14.916666666666666 14.916666666666666) translate(0 0)"><path fill="none" stroke="#000000" stroke-linecap="round" stroke-linejoin="round" stroke-width="2" d="M2 9.5a5.5 5.5 0 0 1 9.591-3.676a.56.56 0 0 0 .818 0A5.49 5.49 0 0 1 22 9.5c0 2.29-1.5 4-3 5.5l-5.492 5.313a2 2 0 0 1-3 .019L5 15c-1.5-1.5-3-3.2-3-5.5"/></g><g transform="translate(78 69) scale(14.916666666666666 14.916666666666666) translate(0 0)"><path fill="none" stroke="#000000" stroke-linecap="round" stroke-linejoin="round" stroke-width="2" d="M2 9.5a5.5 5.5 0 0 1 9.591-3.676a.56.56 0 0 0 .818 0A5.49 5.49 0 0 1 22 9.5c0 2.29-1.5 4-3 5.5l-5.492 5.313a2 2 0 0 1-3 .019L5 15c-1.5-1.5-3-3.2-3-5.5"/></g><g transform="translate(81 70) scale(14.916666666666666 14.916666666666666) translate(0 0)"><path fill="none" stroke="#000000" stroke-linecap="round" stroke-linejoin="round" stroke-width="2" d="M2 9.5a5.5 5.5 0 0 1 9.591-3.676a.56.56 0 0 0 .818 0A5.49 5.49 0 0 1 22 9.5c0 2.29-1.5 4-3 5.5l-5.492 5.313a2 2 0 0 1-3 .019L5 15c-1.5-1.5-3-3.2-3-5.5"/></g><g transform="translate(83 72) scale(14.916666666666666 14.916666666666666) translate(0 0)"><path fill="none" stroke="#000000" stroke-linecap="round" stroke-linejoin="round" stroke-width="2" d="M2 9.5a5.5 5.5 0 0 1 9.591-3.676a.56.56 0 0 0 .818 0A5.49 5.49 0 0 1 22 9.5c0 2.29-1.5 4-3 5.5l-5.492 5.313a2 2 0 0 1-3 .019L5 15c-1.5-1.5-3-3.2-3-5.5"/></g><g transform="translate(84 74) scale(14.916666666666666 14.916666666666666) translate(0 0)"><path fill="none" stroke="#000000" stroke-linecap="round" stroke-linejoin="round" stroke-width="2" d="M2 9.5a5.5 5.5 0 0 1 9.591-3.676a.56.56 0 0 0 .818 0A5.49 5.49 0 0 1 22 9.5c0 2.29-1.5 4-3 5.5l-5.492 5.313a2 2 0 0 1-3 .019L5 15c-1.5-1.5-3-3.2-3-5.5"/></g><g transform="translate(82 77) scale(14.916666666666666 14.916666666666666) translate(0 0)"><path fill="none" stroke="#000000" stroke-linecap="round" stroke-linejoin="round" stroke-width="2" d="M2 9.5a5.5 5.5 0 0 1 9.591-3.676a.56.56 0 0 0 .818 0A5.49 5.49 0 0 1 22 9.5c0 2.29-1.5 4-3 5.5l-5.492 5.313a2 2 0 0 1-3 .019L5 15c-1.5-1.5-3-3.2-3-5.5"/></g><g transform="translate(81 79) scale(14.916666666666666 14.916666666666666) translate(0 0)"><path fill="none" stroke="#000000" stroke-linecap="round" stroke-linejoin="round" stroke-width="2" d="M2 9.5a5.5 5.5 0 0 1 9.591-3.676a.56.56 0 0 0 .818 0A5.49 5.49 0 0 1 22 9.5c0 2.29-1.5 4-3 5.5l-5.492 5.313a2 2 0 0 1-3 .019L5 15c-1.5-1.5-3-3.2-3-5.5"/></g><g transform="translate(80 81) scale(14.916666666666666 14.916666666666666) translate(0 0)"><path fill="none" stroke="#000000" stroke-linecap="round" stroke-linejoin="round" stroke-width="2" d="M2 9.5a5.5 5.5 0 0 1 9.591-3.676a.56.56 0 0 0 .818 0A5.49 5.49 0 0 1 22 9.5c0 2.29-1.5 4-3 5.5l-5.492 5.313a2 2 0 0 1-3 .019L5 15c-1.5-1.5-3-3.2-3-5.5"/></g><g transform="translate(77 82) scale(14.916666666666666 14.916666666666666) translate(0 0)"><path fill="none" stroke="#000000" stroke-linecap="round" stroke-linejoin="round" stroke-width="2" d="M2 9.5a5.5 5.5 0 0 1 9.591-3.676a.56.56 0 0 0 .818 0A5.49 5.49 0 0 1 22 9.5c0 2.29-1.5 4-3 5.5l-5.492 5.313a2 2 0 0 1-3 .019L5 15c-1.5-1.5-3-3.2-3-5.5"/></g><g transform="translate(75 81) scale(14.916666666666666 14.916666666666666) translate(0 0)"><path fill="none" stroke="#000000" stroke-linecap="round" stroke-linejoin="round" stroke-width="2" d="M2 9.5a5.5 5.5 0 0 1 9.591-3.676a.56.56 0 0 0 .818 0A5.49 5.49 0 0 1 22 9.5c0 2.29-1.5 4-3 5.5l-5.492 5.313a2 2 0 0 1-3 .019L5 15c-1.5-1.5-3-3.2-3-5.5"/></g><g transform="translate(73 79) scale(14.916666666666666 14.916666666666666) translate(0 0)"><path fill="none" stroke="#000000" stroke-linecap="round" stroke-linejoin="round" stroke-width="2" d="M2 9.5a5.5 5.5 0 0 1 9.591-3.676a.56.56 0 0 0 .818 0A5.49 5.49 0 0 1 22 9.5c0 2.29-1.5 4-3 5.5l-5.492 5.313a2 2 0 0 1-3 .019L5 15c-1.5-1.5-3-3.2-3-5.5"/></g><g transform="translate(72 77) scale(14.916666666666666 14.916666666666666) translate(0 0)"><path fill="none" stroke="#000000" stroke-linecap="round" stroke-linejoin="round" stroke-width="2" d="M2 9.5a5.5 5.5 0 0 1 9.591-3.676a.56.56 0 0 0 .818 0A5.49 5.49 0 0 1 22 9.5c0 2.29-1.5 4-3 5.5l-5.492 5.313a2 2 0 0 1-3 .019L5 15c-1.5-1.5-3-3.2-3-5.5"/></g><g transform="translate(73 74) scale(14.916666666666666 14.916666666666666) translate(0 0)"><path fill="none" stroke="#000000" stroke-linecap="round" stroke-linejoin="round" stroke-width="2" d="M2 9.5a5.5 5.5 0 0 1 9.591-3.676a.56.56 0 0 0 .818 0A5.49 5.49 0 0 1 22 9.5c0 2.29-1.5 4-3 5.5l-5.492 5.313a2 2 0 0 1-3 .019L5 15c-1.5-1.5-3-3.2-3-5.5"/></g><g transform="translate(74 73) scale(14.916666666666666 14.916666666666666) translate(0 0)"><path fill="none" stroke="#000000" stroke-linecap="round" stroke-linejoin="round" stroke-width="2" d="M2 9.5a5.5 5.5 0 0 1 9.591-3.676a.56.56 0 0 0 .818 0A5.49 5.49 0 0 1 22 9.5c0 2.29-1.5 4-3 5.5l-5.492 5.313a2 2 0 0 1-3 .019L5 15c-1.5-1.5-3-3.2-3-5.5"/></g><g transform="translate(77 72) scale(14.916666666666666 14.916666666666666) translate(0 0)"><path fill="none" stroke="#000000" stroke-linecap="round" stroke-linejoin="round" stroke-width="2" d="M2 9.5a5.5 5.5 0 0 1 9.591-3.676a.56.56 0 0 0 .818 0A5.49 5.49 0 0 1 22 9.5c0 2.29-1.5 4-3 5.5l-5.492 5.313a2 2 0 0 1-3 .019L5 15c-1.5-1.5-3-3.2-3-5.5"/></g><g transform="translate(80 73) scale(14.916666666666666 14.916666666666666) translate(0 0)"><path fill="none" stroke="#000000" stroke-linecap="round" stroke-linejoin="round" stroke-width="2" d="M2 9.5a5.5 5.5 0 0 1 9.591-3.676a.56.56 0 0 0 .818 0A5.49 5.49 0 0 1 22 9.5c0 2.29-1.5 4-3 5.5l-5.492 5.313a2 2 0 0 1-3 .019L5 15c-1.5-1.5-3-3.2-3-5.5"/></g><g transform="translate(81 74) scale(14.916666666666666 14.916666666666666) translate(0 0)"><path fill="none" stroke="#000000" stroke-linecap="round" stroke-linejoin="round" stroke-width="2" d="M2 9.5a5.5 5.5 0 0 1 9.591-3.676a.56.56 0 0 0 .818 0A5.49 5.49 0 0 1 22 9.5c0 2.29-1.5 4-3 5.5l-5.492 5.313a2 2 0 0 1-3 .019L5 15c-1.5-1.5-3-3.2-3-5.5"/></g><g transform="translate(80 77) scale(14.916666666666666 14.916666666666666) translate(0 0)"><path fill="none" stroke="#000000" stroke-linecap="round" stroke-linejoin="round" stroke-width="2" d="M2 9.5a5.5 5.5 0 0 1 9.591-3.676a.56.56 0 0 0 .818 0A5.49 5.49 0 0 1 22 9.5c0 2.29-1.5 4-3 5.5l-5.492 5.313a2 2 0 0 1-3 .019L5 15c-1.5-1.5-3-3.2-3-5.5"/></g><g transform="translate(80 78) scale(14.916666666666666 14.916666666666666) translate(0 0)"><path fill="none" stroke="#000000" stroke-linecap="round" stroke-linejoin="round" stroke-width="2" d="M2 9.5a5.5 5.5 0 0 1 9.591-3.676a.56.56 0 0 0 .818 0A5.49 5.49 0 0 1 22 9.5c0 2.29-1.5 4-3 5.5l-5.492 5.313a2 2 0 0 1-3 .019L5 15c-1.5-1.5-3-3.2-3-5.5"/></g><g transform="translate(79 80) scale(14.916666666666666 14.916666666666666) translate(0 0)"><path fill="none" stroke="#000000" stroke-linecap="round" stroke-linejoin="round" stroke-width="2" d="M2 9.5a5.5 5.5 0 0 1 9.591-3.676a.56.56 0 0 0 .818 0A5.49 5.49 0 0 1 22 9.5c0 2.29-1.5 4-3 5.5l-5.492 5.313a2 2 0 0 1-3 .019L5 15c-1.5-1.5-3-3.2-3-5.5"/></g><g transform="translate(77 80) scale(14.916666666666666 14.916666666666666) translate(0 0)"><path fill="none" stroke="#000000" stroke-linecap="round" stroke-linejoin="round" stroke-width="2" d="M2 9.5a5.5 5.5 0 0 1 9.591-3.676a.56.56 0 0 0 .818 0A5.49 5.49 0 0 1 22 9.5c0 2.29-1.5 4-3 5.5l-5.492 5.313a2 2 0 0 1-3 .019L5 15c-1.5-1.5-3-3.2-3-5.5"/></g><g transform="translate(76 80) scale(14.916666666666666 14.916666666666666) translate(0 0)"><path fill="none" stroke="#000000" stroke-linecap="round" stroke-linejoin="round" stroke-width="2" d="M2 9.5a5.5 5.5 0 0 1 9.591-3.676a.56.56 0 0 0 .818 0A5.49 5.49 0 0 1 22 9.5c0 2.29-1.5 4-3 5.5l-5.492 5.313a2 2 0 0 1-3 .019L5 15c-1.5-1.5-3-3.2-3-5.5"/></g><g transform="translate(74 78) scale(14.916666666666666 14.916666666666666) translate(0 0)"><path fill="none" stroke="#000000" stroke-linecap="round" stroke-linejoin="round" stroke-width="2" d="M2 9.5a5.5 5.5 0 0 1 9.591-3.676a.56.56 0 0 0 .818 0A5.49 5.49 0 0 1 22 9.5c0 2.29-1.5 4-3 5.5l-5.492 5.313a2 2 0 0 1-3 .019L5 15c-1.5-1.5-3-3.2-3-5.5"/></g><g transform="translate(74 77) scale(14.916666666666666 14.916666666666666) translate(0 0)"><path fill="none" stroke="#000000" stroke-linecap="round" stroke-linejoin="round" stroke-width="2" d="M2 9.5a5.5 5.5 0 0 1 9.591-3.676a.56.56 0 0 0 .818 0A5.49 5.49 0 0 1 22 9.5c0 2.29-1.5 4-3 5.5l-5.492 5.313a2 2 0 0 1-3 .019L5 15c-1.5-1.5-3-3.2-3-5.5"/></g><g transform="translate(74 75) scale(14.916666666666666 14.916666666666666) translate(0 0)"><path fill="none" stroke="#000000" stroke-linecap="round" stroke-linejoin="round" stroke-width="2" d="M2 9.5a5.5 5.5 0 0 1 9.591-3.676a.56.56 0 0 0 .818 0A5.49 5.49 0 0 1 22 9.5c0 2.29-1.5 4-3 5.5l-5.492 5.313a2 2 0 0 1-3 .019L5 15c-1.5-1.5-3-3.2-3-5.5"/></g><g transform="translate(75 74) scale(14.916666666666666 14.916666666666666) translate(0 0)"><path fill="none" stroke="#000000" stroke-linecap="round" stroke-linejoin="round" stroke-width="2" d="M2 9.5a5.5 5.5 0 0 1 9.591-3.676a.56.56 0 0 0 .818 0A5.49 5.49 0 0 1 22 9.5c0 2.29-1.5 4-3 5.5l-5.492 5.313a2 2 0 0 1-3 .019L5 15c-1.5-1.5-3-3.2-3-5.5"/></g><g transform="translate(77 74) scale(14.916666666666666 14.916666666666666) translate(0 0)"><path fill="none" stroke="#000000" stroke-linecap="round" stroke-linejoin="round" stroke-width="2" d="M2 9.5a5.5 5.5 0 0 1 9.591-3.676a.56.56 0 0 0 .818 0A5.49 5.49 0 0 1 22 9.5c0 2.29-1.5 4-3 5.5l-5.492 5.313a2 2 0 0 1-3 .019L5 15c-1.5-1.5-3-3.2-3-5.5"/></g><g transform="translate(79 74) scale(14.916666666666666 14.916666666666666) translate(0 0)"><path fill="none" stroke="#000000" stroke-linecap="round" stroke-linejoin="round" stroke-width="2" d="M2 9.5a5.5 5.5 0 0 1 9.591-3.676a.56.56 0 0 0 .818 0A5.49 5.49 0 0 1 22 9.5c0 2.29-1.5 4-3 5.5l-5.492 5.313a2 2 0 0 1-3 .019L5 15c-1.5-1.5-3-3.2-3-5.5"/></g><g transform="translate(80 75) scale(14.916666666666666 14.916666666666666) translate(0 0)"><path fill="none" stroke="#000000" stroke-linecap="round" stroke-linejoin="round" stroke-width="2" d="M2 9.5a5.5 5.5 0 0 1 9.591-3.676a.56.56 0 0 0 .818 0A5.49 5.49 0 0 1 22 9.5c0 2.29-1.5 4-3 5.5l-5.492 5.313a2 2 0 0 1-3 .019L5 15c-1.5-1.5-3-3.2-3-5.5"/></g>
      <g transform="translate(77 77) scale(14.916666666666666 14.916666666666666) translate(0 0)"><path fill="none" stroke="#292929" stroke-linecap="round" stroke-linejoin="round" stroke-width="2" d="M2 9.5a5.5 5.5 0 0 1 9.591-3.676a.56.56 0 0 0 .818 0A5.49 5.49 0 0 1 22 9.5c0 2.29-1.5 4-3 5.5l-5.492 5.313a2 2 0 0 1-3 .019L5 15c-1.5-1.5-3-3.2-3-5.5"/></g>
    </g>
  </g>
</svg>