<svg xmlns="http://www.w3.org/2000/svg" xmlns:xlink="http://www.w3.org/1999/xlink" width="512" height="512" viewBox="0 0 512 512">
  <defs>
    <clipPath id="canvas-clip">
      <rect width="512" height="512" rx="112" ry="112"/>
    </clipPath>
  </defs>
  <rect width="512" height="512" rx="112" ry="112" fill="none"  clip-path="url(#canvas-clip)"/>
  <g clip-path="url(#canvas-clip)">
    <g transform="rotate(0, 256, 256)">
      <g transform="translate(113 103) scale(12.791666666666666 12.791666666666666) translate(0 0)"><path fill="none" stroke="#111111" stroke-linecap="round" stroke-linejoin="round" stroke-width="2" d="M2 9.5a5.5 5.5 0 0 1 9.591-3.676a.56.56 0 0 0 .818 0A5.49 5.49 0 0 1 22 9.5c0 2.29-1.5 4-3 5.5l-5.492 5.313a2 2 0 0 1-3 .019L5 15c-1.5-1.5-3-3.2-3-5.5"/></g><g transform="translate(113 106) scale(12.791666666666666 12.791666666666666) translate(0 0)"><path fill="none" stroke="#111111" stroke-linecap="round" stroke-linejoin="round" stroke-width="2" d="M2 9.5a5.5 5.5 0 0 1 9.591-3.676a.56.56 0 0 0 .818 0A5.49 5.49 0 0 1 22 9.5c0 2.29-1.5 4-3 5.5l-5.492 5.313a2 2 0 0 1-3 .019L5 15c-1.5-1.5-3-3.2-3-5.5"/></g><g transform="translate(111 109) scale(12.791666666666666 12.791666666666666) translate(0 0)"><path fill="none" stroke="#111111" stroke-linecap="round" stroke-linejoin="round" stroke-width="2" d="M2 9.5a5.5 5.5 0 0 1 9.591-3.676a.56.56 0 0 0 .818 0A5.49 5.49 0 0 1 22 9.5c0 2.29-1.5 4-3 5.5l-5.492 5.313a2 2 0 0 1-3 .019L5 15c-1.5-1.5-3-3.2-3-5.5"/></g><g transform="translate(109 111) scale(12.791666666666666 12.791666666666666) translate(0 0)"><path fill="none" stroke="#111111" stroke-linecap="round" stroke-linejoin="round" stroke-width="2" d="M2 9.5a5.5 5.5 0 0 1 9.591-3.676a.56.56 0 0 0 .818 0A5.49 5.49 0 0 1 22 9.5c0 2.29-1.5 4-3 5.5l-5.492 5.313a2 2 0 0 1-3 .019L5 15c-1.5-1.5-3-3.2-3-5.5"/></g><g transform="translate(107 112) scale(12.791666666666666 12.791666666666666) translate(0 0)"><path fill="none" stroke="#111111" stroke-linecap="round" stroke-linejoin="round" stroke-width="2" d="M2 9.5a5.5 5.5 0 0 1 9.591-3.676a.56.56 0 0 0 .818 0A5.49 5.49 0 0 1 22 9.5c0 2.29-1.5 4-3 5.5l-5.492 5.313a2 2 0 0 1-3 .019L5 15c-1.5-1.5-3-3.2-3-5.5"/></g><g transform="translate(104 113) scale(12.791666666666666 12.791666666666666) translate(0 0)"><path fill="none" stroke="#111111" stroke-linecap="round" stroke-linejoin="round" stroke-width="2" d="M2 9.5a5.5 5.5 0 0 1 9.591-3.676a.56.56 0 0 0 .818 0A5.49 5.49 0 0 1 22 9.5c0 2.29-1.5 4-3 5.5l-5.492 5.313a2 2 0 0 1-3 .019L5 15c-1.5-1.5-3-3.2-3-5.5"/></g><g transform="translate(101 113) scale(12.791666666666666 12.791666666666666) translate(0 0)"><path fill="none" stroke="#111111" stroke-linecap="round" stroke-linejoin="round" stroke-width="2" d="M2 9.5a5.5 5.5 0 0 1 9.591-3.676a.56.56 0 0 0 .818 0A5.49 5.49 0 0 1 22 9.5c0 2.29-1.5 4-3 5.5l-5.492 5.313a2 2 0 0 1-3 .019L5 15c-1.5-1.5-3-3.2-3-5.5"/></g><g transform="translate(98 112) scale(12.791666666666666 12.791666666666666) translate(0 0)"><path fill="none" stroke="#111111" stroke-linecap="round" stroke-linejoin="round" stroke-width="2" d="M2 9.5a5.5 5.5 0 0 1 9.591-3.676a.56.56 0 0 0 .818 0A5.49 5.49 0 0 1 22 9.5c0 2.29-1.5 4-3 5.5l-5.492 5.313a2 2 0 0 1-3 .019L5 15c-1.5-1.5-3-3.2-3-5.5"/></g><g transform="translate(96 110) scale(12.791666666666666 12.791666666666666) translate(0 0)"><path fill="none" stroke="#111111" stroke-linecap="round" stroke-linejoin="round" stroke-width="2" d="M2 9.5a5.5 5.5 0 0 1 9.591-3.676a.56.56 0 0 0 .818 0A5.49 5.49 0 0 1 22 9.5c0 2.29-1.5 4-3 5.5l-5.492 5.313a2 2 0 0 1-3 .019L5 15c-1.5-1.5-3-3.2-3-5.5"/></g><g transform="translate(94 107) scale(12.791666666666666 12.791666666666666) translate(0 0)"><path fill="none" stroke="#111111" stroke-linecap="round" stroke-linejoin="round" stroke-width="2" d="M2 9.5a5.5 5.5 0 0 1 9.591-3.676a.56.56 0 0 0 .818 0A5.49 5.49 0 0 1 22 9.5c0 2.29-1.5 4-3 5.5l-5.492 5.313a2 2 0 0 1-3 .019L5 15c-1.5-1.5-3-3.2-3-5.5"/></g><g transform="translate(93 104) scale(12.791666666666666 12.791666666666666) translate(0 0)"><path fill="none" stroke="#111111" stroke-linecap="round" stroke-linejoin="round" stroke-width="2" d="M2 9.5a5.5 5.5 0 0 1 9.591-3.676a.56.56 0 0 0 .818 0A5.49 5.49 0 0 1 22 9.5c0 2.29-1.5 4-3 5.5l-5.492 5.313a2 2 0 0 1-3 .019L5 15c-1.5-1.5-3-3.2-3-5.5"/></g><g transform="translate(93 102) scale(12.791666666666666 12.791666666666666) translate(0 0)"><path fill="none" stroke="#111111" stroke-linecap="round" stroke-linejoin="round" stroke-width="2" d="M2 9.5a5.5 5.5 0 0 1 9.591-3.676a.56.56 0 0 0 .818 0A5.49 5.49 0 0 1 22 9.5c0 2.29-1.5 4-3 5.5l-5.492 5.313a2 2 0 0 1-3 .019L5 15c-1.5-1.5-3-3.2-3-5.5"/></g><g transform="translate(94 99) scale(12.791666666666666 12.791666666666666) translate(0 0)"><path fill="none" stroke="#111111" stroke-linecap="round" stroke-linejoin="round" stroke-width="2" d="M2 9.5a5.5 5.5 0 0 1 9.591-3.676a.56.56 0 0 0 .818 0A5.49 5.49 0 0 1 22 9.5c0 2.29-1.5 4-3 5.5l-5.492 5.313a2 2 0 0 1-3 .019L5 15c-1.5-1.5-3-3.2-3-5.5"/></g><g transform="translate(96 96) scale(12.791666666666666 12.791666666666666) translate(0 0)"><path fill="none" stroke="#111111" stroke-linecap="round" stroke-linejoin="round" stroke-width="2" d="M2 9.5a5.5 5.5 0 0 1 9.591-3.676a.56.56 0 0 0 .818 0A5.49 5.49 0 0 1 22 9.5c0 2.29-1.5 4-3 5.5l-5.492 5.313a2 2 0 0 1-3 .019L5 15c-1.5-1.5-3-3.2-3-5.5"/></g><g transform="translate(98 94) scale(12.791666666666666 12.791666666666666) translate(0 0)"><path fill="none" stroke="#111111" stroke-linecap="round" stroke-linejoin="round" stroke-width="2" d="M2 9.5a5.5 5.5 0 0 1 9.591-3.676a.56.56 0 0 0 .818 0A5.49 5.49 0 0 1 22 9.5c0 2.29-1.5 4-3 5.5l-5.492 5.313a2 2 0 0 1-3 .019L5 15c-1.5-1.5-3-3.2-3-5.5"/></g><g transform="translate(101 93) scale(12.791666666666666 12.791666666666666) translate(0 0)"><path fill="none" stroke="#111111" stroke-linecap="round" stroke-linejoin="round" stroke-width="2" d="M2 9.5a5.5 5.5 0 0 1 9.591-3.676a.56.56 0 0 0 .818 0A5.49 5.49 0 0 1 22 9.5c0 2.29-1.5 4-3 5.5l-5.492 5.313a2 2 0 0 1-3 .019L5 15c-1.5-1.5-3-3.2-3-5.5"/></g><g transform="translate(104 93) scale(12.791666666666666 12.791666666666666) translate(0 0)"><path fill="none" stroke="#111111" stroke-linecap="round" stroke-linejoin="round" stroke-width="2" d="M2 9.5a5.5 5.5 0 0 1 9.591-3.676a.56.56 0 0 0 .818 0A5.49 5.49 0 0 1 22 9.5c0 2.29-1.5 4-3 5.5l-5.492 5.313a2 2 0 0 1-3 .019L5 15c-1.5-1.5-3-3.2-3-5.5"/></g><g transform="translate(107 94) scale(12.791666666666666 12.791666666666666) translate(0 0)"><path fill="none" stroke="#111111" stroke-linecap="round" stroke-linejoin="round" stroke-width="2" d="M2 9.5a5.5 5.5 0 0 1 9.591-3.676a.56.56 0 0 0 .818 0A5.49 5.49 0 0 1 22 9.5c0 2.29-1.5 4-3 5.5l-5.492 5.313a2 2 0 0 1-3 .019L5 15c-1.5-1.5-3-3.2-3-5.5"/></g><g transform="translate(109 95) scale(12.791666666666666 12.791666666666666) translate(0 0)"><path fill="none" stroke="#111111" stroke-linecap="round" stroke-linejoin="round" stroke-width="2" d="M2 9.5a5.5 5.5 0 0 1 9.591-3.676a.56.56 0 0 0 .818 0A5.49 5.49 0 0 1 22 9.5c0 2.29-1.5 4-3 5.5l-5.492 5.313a2 2 0 0 1-3 .019L5 15c-1.5-1.5-3-3.2-3-5.5"/></g><g transform="translate(111 97) scale(12.791666666666666 12.791666666666666) translate(0 0)"><path fill="none" stroke="#111111" stroke-linecap="round" stroke-linejoin="round" stroke-width="2" d="M2 9.5a5.5 5.5 0 0 1 9.591-3.676a.56.56 0 0 0 .818 0A5.49 5.49 0 0 1 22 9.5c0 2.29-1.5 4-3 5.5l-5.492 5.313a2 2 0 0 1-3 .019L5 15c-1.5-1.5-3-3.2-3-5.5"/></g><g transform="translate(113 100) scale(12.791666666666666 12.791666666666666) translate(0 0)"><path fill="none" stroke="#111111" stroke-linecap="round" stroke-linejoin="round" stroke-width="2" d="M2 9.5a5.5 5.5 0 0 1 9.591-3.676a.56.56 0 0 0 .818 0A5.49 5.49 0 0 1 22 9.5c0 2.29-1.5 4-3 5.5l-5.492 5.313a2 2 0 0 1-3 .019L5 15c-1.5-1.5-3-3.2-3-5.5"/></g><g transform="translate(110 103) scale(12.791666666666666 12.791666666666666) translate(0 0)"><path fill="none" stroke="#111111" stroke-linecap="round" stroke-linejoin="round" stroke-width="2" d="M2 9.5a5.5 5.5 0 0 1 9.591-3.676a.56.56 0 0 0 .818 0A5.49 5.49 0 0 1 22 9.5c0 2.29-1.5 4-3 5.5l-5.492 5.313a2 2 0 0 1-3 .019L5 15c-1.5-1.5-3-3.2-3-5.5"/></g><g transform="translate(109 106) scale(12.791666666666666 12.791666666666666) translate(0 0)"><path fill="none" stroke="#111111" stroke-linecap="round" stroke-linejoin="round" stroke-width="2" d="M2 9.5a5.5 5.5 0 0 1 9.591-3.676a.56.56 0 0 0 .818 0A5.49 5.49 0 0 1 22 9.5c0 2.29-1.5 4-3 5.5l-5.492 5.313a2 2 0 0 1-3 .019L5 15c-1.5-1.5-3-3.2-3-5.5"/></g><g transform="translate(108 108) scale(12.791666666666666 12.791666666666666) translate(0 0)"><path fill="none" stroke="#111111" stroke-linecap="round" stroke-linejoin="round" stroke-width="2" d="M2 9.5a5.5 5.5 0 0 1 9.591-3.676a.56.56 0 0 0 .818 0A5.49 5.49 0 0 1 22 9.5c0 2.29-1.5 4-3 5.5l-5.492 5.313a2 2 0 0 1-3 .019L5 15c-1.5-1.5-3-3.2-3-5.5"/></g><g transform="translate(105 110) scale(12.791666666666666 12.791666666666666) translate(0 0)"><path fill="none" stroke="#111111" stroke-linecap="round" stroke-linejoin="round" stroke-width="2" d="M2 9.5a5.5 5.5 0 0 1 9.591-3.676a.56.56 0 0 0 .818 0A5.49 5.49 0 0 1 22 9.5c0 2.29-1.5 4-3 5.5l-5.492 5.313a2 2 0 0 1-3 .019L5 15c-1.5-1.5-3-3.2-3-5.5"/></g><g transform="translate(102 110) scale(12.791666666666666 12.791666666666666) translate(0 0)"><path fill="none" stroke="#111111" stroke-linecap="round" stroke-linejoin="round" stroke-width="2" d="M2 9.5a5.5 5.5 0 0 1 9.591-3.676a.56.56 0 0 0 .818 0A5.49 5.49 0 0 1 22 9.5c0 2.29-1.5 4-3 5.5l-5.492 5.313a2 2 0 0 1-3 .019L5 15c-1.5-1.5-3-3.2-3-5.5"/></g><g transform="translate(100 109) scale(12.791666666666666 12.791666666666666) translate(0 0)"><path fill="none" stroke="#111111" stroke-linecap="round" stroke-linejoin="round" stroke-width="2" d="M2 9.5a5.5 5.5 0 0 1 9.591-3.676a.56.56 0 0 0 .818 0A5.49 5.49 0 0 1 22 9.5c0 2.29-1.5 4-3 5.5l-5.492 5.313a2 2 0 0 1-3 .019L5 15c-1.5-1.5-3-3.2-3-5.5"/></g><g transform="translate(97 107) scale(12.791666666666666 12.791666666666666) translate(0 0)"><path fill="none" stroke="#111111" stroke-linecap="round" stroke-linejoin="round" stroke-width="2" d="M2 9.5a5.5 5.5 0 0 1 9.591-3.676a.56.56 0 0 0 .818 0A5.49 5.49 0 0 1 22 9.5c0 2.29-1.5 4-3 5.5l-5.492 5.313a2 2 0 0 1-3 .019L5 15c-1.5-1.5-3-3.2-3-5.5"/></g><g transform="translate(96 104) scale(12.791666666666666 12.791666666666666) translate(0 0)"><path fill="none" stroke="#111111" stroke-linecap="round" stroke-linejoin="round" stroke-width="2" d="M2 9.5a5.5 5.5 0 0 1 9.591-3.676a.56.56 0 0 0 .818 0A5.49 5.49 0 0 1 22 9.5c0 2.29-1.5 4-3 5.5l-5.492 5.313a2 2 0 0 1-3 .019L5 15c-1.5-1.5-3-3.2-3-5.5"/></g><g transform="translate(96 102) scale(12.791666666666666 12.791666666666666) translate(0 0)"><path fill="none" stroke="#111111" stroke-linecap="round" stroke-linejoin="round" stroke-width="2" d="M2 9.5a5.5 5.5 0 0 1 9.591-3.676a.56.56 0 0 0 .818 0A5.49 5.49 0 0 1 22 9.5c0 2.29-1.5 4-3 5.5l-5.492 5.313a2 2 0 0 1-3 .019L5 15c-1.5-1.5-3-3.2-3-5.5"/></g><g transform="translate(97 99) scale(12.791666666666666 12.791666666666666) translate(0 0)"><path fill="none" stroke="#111111" stroke-linecap="round" stroke-linejoin="round" stroke-width="2" d="M2 9.5a5.5 5.5 0 0 1 9.591-3.676a.56.56 0 0 0 .818 0A5.49 5.49 0 0 1 22 9.5c0 2.29-1.5 4-3 5.5l-5.492 5.313a2 2 0 0 1-3 .019L5 15c-1.5-1.5-3-3.2-3-5.5"/></g><g transform="translate(99 97) scale(12.791666666666666 12.791666666666666) translate(0 0)"><path fill="none" stroke="#111111" stroke-linecap="round" stroke-linejoin="round" stroke-width="2" d="M2 9.5a5.5 5.5 0 0 1 9.591-3.676a.56.56 0 0 0 .818 0A5.49 5.49 0 0 1 22 9.5c0 2.29-1.5 4-3 5.5l-5.492 5.313a2 2 0 0 1-3 .019L5 15c-1.5-1.5-3-3.2-3-5.5"/></g><g transform="translate(102 96) scale(12.791666666666666 12.791666666666666) translate(0 0)"><path fill="none" stroke="#111111" stroke-linecap="round" stroke-linejoin="round" stroke-width="2" d="M2 9.5a5.5 5.5 0 0 1 9.591-3.676a.56.56 0 0 0 .818 0A5.49 5.49 0 0 1 22 9.5c0 2.29-1.5 4-3 5.5l-5.492 5.313a2 2 0 0 1-3 .019L5 15c-1.5-1.5-3-3.2-3-5.5"/></g><g transform="translate(105 96) scale(12.791666666666666 12.791666666666666) translate(0 0)"><path fill="none" stroke="#111111" stroke-linecap="round" stroke-linejoin="round" stroke-width="2" d="M2 9.5a5.5 5.5 0 0 1 9.591-3.676a.56.56 0 0 0 .818 0A5.49 5.49 0 0 1 22 9.5c0 2.29-1.5 4-3 5.5l-5.492 5.313a2 2 0 0 1-3 .019L5 15c-1.5-1.5-3-3.2-3-5.5"/></g><g transform="translate(108 98) scale(12.791666666666666 12.791666666666666) translate(0 0)"><path fill="none" stroke="#111111" stroke-linecap="round" stroke-linejoin="round" stroke-width="2" d="M2 9.5a5.5 5.5 0 0 1 9.591-3.676a.56.56 0 0 0 .818 0A5.49 5.49 0 0 1 22 9.5c0 2.29-1.5 4-3 5.5l-5.492 5.313a2 2 0 0 1-3 .019L5 15c-1.5-1.5-3-3.2-3-5.5"/></g><g transform="translate(109 100) scale(12.791666666666666 12.791666666666666) translate(0 0)"><path fill="none" stroke="#111111" stroke-linecap="round" stroke-linejoin="round" stroke-width="2" d="M2 9.5a5.5 5.5 0 0 1 9.591-3.676a.56.56 0 0 0 .818 0A5.49 5.49 0 0 1 22 9.5c0 2.29-1.5 4-3 5.5l-5.492 5.313a2 2 0 0 1-3 .019L5 15c-1.5-1.5-3-3.2-3-5.5"/></g><g transform="translate(106 103) scale(12.791666666666666 12.791666666666666) translate(0 0)"><path fill="none" stroke="#111111" stroke-linecap="round" stroke-linejoin="round" stroke-width="2" d="M2 9.5a5.5 5.5 0 0 1 9.591-3.676a.56.56 0 0 0 .818 0A5.49 5.49 0 0 1 22 9.5c0 2.29-1.5 4-3 5.5l-5.492 5.313a2 2 0 0 1-3 .019L5 15c-1.5-1.5-3-3.2-3-5.5"/></g><g transform="translate(106 104) scale(12.791666666666666 12.791666666666666) translate(0 0)"><path fill="none" stroke="#111111" stroke-linecap="round" stroke-linejoin="round" stroke-width="2" d="M2 9.5a5.5 5.5 0 0 1 9.591-3.676a.56.56 0 0 0 .818 0A5.49 5.49 0 0 1 22 9.5c0 2.29-1.5 4-3 5.5l-5.492 5.313a2 2 0 0 1-3 .019L5 15c-1.5-1.5-3-3.2-3-5.5"/></g><g transform="translate(105 106) scale(12.791666666666666 12.791666666666666) translate(0 0)"><path fill="none" stroke="#111111" stroke-linecap="round" stroke-linejoin="round" stroke-width="2" d="M2 9.5a5.5 5.5 0 0 1 9.591-3.676a.56.56 0 0 0 .818 0A5.49 5.49 0 0 1 22 9.5c0 2.29-1.5 4-3 5.5l-5.492 5.313a2 2 0 0 1-3 .019L5 15c-1.5-1.5-3-3.2-3-5.5"/></g><g transform="translate(103 106) scale(12.791666666666666 12.791666666666666) translate(0 0)"><path fill="none" stroke="#111111" stroke-linecap="round" stroke-linejoin="round" stroke-width="2" d="M2 9.5a5.5 5.5 0 0 1 9.591-3.676a.56.56 0 0 0 .818 0A5.49 5.49 0 0 1 22 9.5c0 2.29-1.5 4-3 5.5l-5.492 5.313a2 2 0 0 1-3 .019L5 15c-1.5-1.5-3-3.2-3-5.5"/></g><g transform="translate(102 106) scale(12.791666666666666 12.791666666666666) translate(0 0)"><path fill="none" stroke="#111111" stroke-linecap="round" stroke-linejoin="round" stroke-width="2" d="M2 9.5a5.5 5.5 0 0 1 9.591-3.676a.56.56 0 0 0 .818 0A5.49 5.49 0 0 1 22 9.5c0 2.29-1.5 4-3 5.5l-5.492 5.313a2 2 0 0 1-3 .019L5 15c-1.5-1.5-3-3.2-3-5.5"/></g><g transform="translate(100 104) scale(12.791666666666666 12.791666666666666) translate(0 0)"><path fill="none" stroke="#111111" stroke-linecap="round" stroke-linejoin="round" stroke-width="2" d="M2 9.5a5.5 5.5 0 0 1 9.591-3.676a.56.56 0 0 0 .818 0A5.49 5.49 0 0 1 22 9.5c0 2.29-1.5 4-3 5.5l-5.492 5.313a2 2 0 0 1-3 .019L5 15c-1.5-1.5-3-3.2-3-5.5"/></g><g transform="translate(100 103) scale(12.791666666666666 12.791666666666666) translate(0 0)"><path fill="none" stroke="#111111" stroke-linecap="round" stroke-linejoin="round" stroke-width="2" d="M2 9.5a5.5 5.5 0 0 1 9.591-3.676a.56.56 0 0 0 .818 0A5.49 5.49 0 0 1 22 9.5c0 2.29-1.5 4-3 5.5l-5.492 5.313a2 2 0 0 1-3 .019L5 15c-1.5-1.5-3-3.2-3-5.5"/></g><g transform="translate(100 101) scale(12.791666666666666 12.791666666666666) translate(0 0)"><path fill="none" stroke="#111111" stroke-linecap="round" stroke-linejoin="round" stroke-width="2" d="M2 9.5a5.5 5.5 0 0 1 9.591-3.676a.56.56 0 0 0 .818 0A5.49 5.49 0 0 1 22 9.5c0 2.29-1.5 4-3 5.5l-5.492 5.313a2 2 0 0 1-3 .019L5 15c-1.5-1.5-3-3.2-3-5.5"/></g><g transform="translate(101 100) scale(12.791666666666666 12.791666666666666) translate(0 0)"><path fill="none" stroke="#111111" stroke-linecap="round" stroke-linejoin="round" stroke-width="2" d="M2 9.5a5.5 5.5 0 0 1 9.591-3.676a.56.56 0 0 0 .818 0A5.49 5.49 0 0 1 22 9.5c0 2.29-1.5 4-3 5.5l-5.492 5.313a2 2 0 0 1-3 .019L5 15c-1.5-1.5-3-3.2-3-5.5"/></g><g transform="translate(103 100) scale(12.791666666666666 12.791666666666666) translate(0 0)"><path fill="none" stroke="#111111" stroke-linecap="round" stroke-linejoin="round" stroke-width="2" d="M2 9.5a5.5 5.5 0 0 1 9.591-3.676a.56.56 0 0 0 .818 0A5.49 5.49 0 0 1 22 9.5c0 2.29-1.5 4-3 5.5l-5.492 5.313a2 2 0 0 1-3 .019L5 15c-1.5-1.5-3-3.2-3-5.5"/></g><g transform="translate(105 100) scale(12.791666666666666 12.791666666666666) translate(0 0)"><path fill="none" stroke="#111111" stroke-linecap="round" stroke-linejoin="round" stroke-width="2" d="M2 9.5a5.5 5.5 0 0 1 9.591-3.676a.56.56 0 0 0 .818 0A5.49 5.49 0 0 1 22 9.5c0 2.29-1.5 4-3 5.5l-5.492 5.313a2 2 0 0 1-3 .019L5 15c-1.5-1.5-3-3.2-3-5.5"/></g><g transform="translate(106 101) scale(12.791666666666666 12.791666666666666) translate(0 0)"><path fill="none" stroke="#111111" stroke-linecap="round" stroke-linejoin="round" stroke-width="2" d="M2 9.5a5.5 5.5 0 0 1 9.591-3.676a.56.56 0 0 0 .818 0A5.49 5.49 0 0 1 22 9.5c0 2.29-1.5 4-3 5.5l-5.492 5.313a2 2 0 0 1-3 .019L5 15c-1.5-1.5-3-3.2-3-5.5"/></g>
      <g transform="translate(103 103) scale(12.791666666666666 12.791666666666666) translate(0 0)"><path fill="none" stroke="#292929" stroke-linecap="round" stroke-linejoin="round" stroke-width="2" d="M2 9.5a5.5 5.5 0 0 1 9.591-3.676a.56.56 0 0 0 .818 0A5.49 5.49 0 0 1 22 9.5c0 2.29-1.5 4-3 5.5l-5.492 5.313a2 2 0 0 1-3 .019L5 15c-1.5-1.5-3-3.2-3-5.5"/></g>
    </g>
  </g>
</svg>